<svg viewBox="0 0 24 24" fill="none" xmlns="http://www.w3.org/2000/svg" stroke="#ffffff"><g id="SVGRepo_bgCarrier" stroke-width="0"></g><g id="SVGRepo_tracerCarrier" stroke-linecap="round" stroke-linejoin="round"></g><g id="SVGRepo_iconCarrier"> <path fill-rule="evenodd" clip-rule="evenodd" d="M9 7.5C9 5.84315 10.3431 4.5 12 4.5C13.6569 4.5 15 5.84315 15 7.5H15.75C17.4069 7.5 18.75 8.84315 18.75 10.5C18.75 12.1569 17.4069 13.5 15.75 13.5H15V15.75H9V13.5H8.25C6.59315 13.5 5.25 12.1569 5.25 10.5C5.25 8.84315 6.59315 7.5 8.25 7.5H9ZM7.74631 6.02787C8.35613 4.26554 10.0303 3 12 3C13.9697 3 15.6439 4.26554 16.2537 6.02788C18.5019 6.27827 20.25 8.18499 20.25 10.5C20.25 12.7297 18.6283 14.5807 16.5 14.9378V19.5L15.75 20.25H8.25L7.5 19.5V14.9378C5.37172 14.5807 3.75 12.7297 3.75 10.5C3.75 8.18499 5.49811 6.27827 7.74631 6.02787ZM9 18.75V17.25H15V18.75H9Z" fill="#080341"></path> </g></svg>