<svg viewBox="-2.4 -2.4 28.80 28.80" fill="none" xmlns="http://www.w3.org/2000/svg"><g id="SVGRepo_bgCarrier" stroke-width="0"><path transform="translate(-2.4, -2.4), scale(1.7999999999999998)" fill="#fde8e8" d="M9.166.33a2.25 2.25 0 00-2.332 0l-5.25 3.182A2.25 2.25 0 00.5 5.436v5.128a2.25 2.25 0 001.084 1.924l5.25 3.182a2.25 2.25 0 002.332 0l5.25-3.182a2.25 2.25 0 001.084-1.924V5.436a2.25 2.25 0 00-1.084-1.924L9.166.33z" strokewidth="0"></path></g><g id="SVGRepo_tracerCarrier" stroke-linecap="round" stroke-linejoin="round"></g><g id="SVGRepo_iconCarrier"> <path fill-rule="evenodd" clip-rule="evenodd" d="M12 3C12.2884 3 12.5627 3.12448 12.7526 3.3415L19.7526 11.3415C20.0825 11.7185 20.0825 12.2815 19.7526 12.6585L12.7526 20.6585C12.5627 20.8755 12.2884 21 12 21C11.7116 21 11.4373 20.8755 11.2474 20.6585L4.24742 12.6585C3.91753 12.2815 3.91753 11.7185 4.24742 11.3415L11.2474 3.3415C11.4373 3.12448 11.7116 3 12 3ZM6.32877 12L12 18.4814L17.6712 12L12 5.51859L6.32877 12Z" fill="#222"></path> </g></svg>